<svg width="707" height="73" fill="none" xmlns="http://www.w3.org/2000/svg"><path d="M75 0v70H61.3V24.6L41.6 57.1H40L20.3 24.7V70H6.5V0h14.2l20.1 33.1L60.8 0H75Zm23.343 50.3c1.733 6.267 6.433 9.4 14.1 9.4 4.933 0 8.667-1.667 11.2-5l10.4 6c-4.933 7.133-12.2 10.7-21.8 10.7-8.267 0-14.9-2.5-19.9-7.5-5-5-7.5-11.3-7.5-18.9 0-7.533 2.467-13.8 7.4-18.8 4.933-5.067 11.267-7.6 19-7.6 7.333 0 13.367 2.533 18.1 7.6 4.8 5.067 7.2 11.333 7.2 18.8 0 1.667-.167 3.433-.5 5.3h-37.7Zm-.2-10h25.5c-.733-3.4-2.267-5.933-4.6-7.6-2.267-1.667-4.867-2.5-7.8-2.5-3.467 0-6.333.9-8.6 2.7-2.267 1.733-3.767 4.2-4.5 7.4Zm57.915 10c1.733 6.267 6.433 9.4 14.1 9.4 4.933 0 8.666-1.667 11.2-5l10.4 6c-4.934 7.133-12.2 10.7-21.8 10.7-8.267 0-14.9-2.5-19.9-7.5-5-5-7.5-11.3-7.5-18.9 0-7.533 2.466-13.8 7.4-18.8 4.933-5.067 11.266-7.6 19-7.6 7.333 0 13.366 2.533 18.1 7.6 4.8 5.067 7.2 11.333 7.2 18.8 0 1.667-.167 3.433-.5 5.3h-37.7Zm-.2-10h25.5c-.734-3.4-2.267-5.933-4.6-7.6-2.267-1.667-4.867-2.5-7.8-2.5-3.467 0-6.334.9-8.6 2.7-2.267 1.733-3.767 4.2-4.5 7.4Zm74.54-7.9h-11.3v20.8c0 1.733.434 3 1.3 3.8.867.8 2.134 1.267 3.8 1.4 1.667.067 3.734.033 6.2-.1V70c-8.866 1-15.133.167-18.8-2.5-3.6-2.667-5.4-7.433-5.4-14.3V32.4h-8.7V20h8.7V9.9l12.9-3.9v14h11.3v12.4Zm63.477 0h-11.3v20.8c0 1.733.433 3 1.3 3.8.867.8 2.133 1.267 3.8 1.4 1.667.067 3.733.033 6.2-.1V70c-8.867 1-15.133.167-18.8-2.5-3.6-2.667-5.4-7.433-5.4-14.3V32.4h-8.7V20h8.7V9.9l12.9-3.9v14h11.3v12.4Zm36.895-13.8c5.467 0 9.967 1.833 13.5 5.5 3.6 3.667 5.4 8.733 5.4 15.2V70h-12.9V40.9c0-3.333-.9-5.867-2.7-7.6-1.8-1.8-4.2-2.7-7.2-2.7-3.333 0-6 1.033-8 3.1s-3 5.167-3 9.3v27h-12.9V0h12.9v25.6c3.134-4.667 8.1-7 14.9-7Zm40.815 31.7c1.733 6.267 6.433 9.4 14.1 9.4 4.933 0 8.667-1.667 11.2-5l10.4 6c-4.933 7.133-12.2 10.7-21.8 10.7-8.267 0-14.9-2.5-19.9-7.5-5-5-7.5-11.3-7.5-18.9 0-7.533 2.467-13.8 7.4-18.8 4.933-5.067 11.267-7.6 19-7.6 7.333 0 13.367 2.533 18.1 7.6 4.8 5.067 7.2 11.333 7.2 18.8 0 1.667-.167 3.433-.5 5.3h-37.7Zm-.2-10h25.5c-.733-3.4-2.267-5.933-4.6-7.6-2.267-1.667-4.867-2.5-7.8-2.5-3.467 0-6.333.9-8.6 2.7-2.267 1.733-3.767 4.2-4.5 7.4Zm101.006-7.9h-11.3v20.8c0 1.733.433 3 1.3 3.8.866.8 2.133 1.267 3.8 1.4 1.666.067 3.733.033 6.2-.1V70c-8.867 1-15.134.167-18.8-2.5-3.6-2.667-5.4-7.433-5.4-14.3V32.4h-8.7V20h8.7V9.9l12.9-3.9v14h11.3v12.4Zm18.432 17.9c1.734 6.267 6.434 9.4 14.1 9.4 4.934 0 8.667-1.667 11.2-5l10.4 6c-4.933 7.133-12.2 10.7-21.8 10.7-8.266 0-14.9-2.5-19.9-7.5-5-5-7.5-11.3-7.5-18.9 0-7.533 2.467-13.8 7.4-18.8 4.934-5.067 11.267-7.6 19-7.6 7.334 0 13.367 2.533 18.1 7.6 4.8 5.067 7.2 11.333 7.2 18.8 0 1.667-.166 3.433-.5 5.3h-37.7Zm-.2-10h25.5c-.733-3.4-2.266-5.933-4.6-7.6-2.266-1.667-4.866-2.5-7.8-2.5-3.466 0-6.333.9-8.6 2.7-2.266 1.733-3.766 4.2-4.5 7.4ZM575.638 20h12.9v50h-12.9v-5.9c-3.866 4.867-9.3 7.3-16.3 7.3-6.666 0-12.4-2.533-17.2-7.6-4.733-5.133-7.1-11.4-7.1-18.8s2.367-13.633 7.1-18.7c4.8-5.133 10.534-7.7 17.2-7.7 7 0 12.434 2.433 16.3 7.3V20Zm-23.8 35.2c2.6 2.6 5.9 3.9 9.9 3.9s7.3-1.3 9.9-3.9c2.667-2.667 4-6.067 4-10.2 0-4.133-1.333-7.5-4-10.1-2.6-2.667-5.9-4-9.9-4s-7.3 1.333-9.9 4c-2.6 2.6-3.9 5.967-3.9 10.1s1.3 7.533 3.9 10.2Zm103.698-36.6c5.733 0 10.3 1.867 13.7 5.6 3.467 3.733 5.2 8.733 5.2 15V70h-12.9V40.1c0-3-.733-5.333-2.2-7-1.467-1.667-3.533-2.5-6.2-2.5-2.933 0-5.233.967-6.9 2.9-1.6 1.933-2.4 4.733-2.4 8.4V70h-12.9V40.1c0-3-.733-5.333-2.2-7-1.467-1.667-3.533-2.5-6.2-2.5-2.867 0-5.167.967-6.9 2.9-1.667 1.933-2.5 4.733-2.5 8.4V70h-12.9V20h12.9v5.3c3-4.467 7.633-6.7 13.9-6.7 6.133 0 10.667 2.4 13.6 7.2 3.333-4.8 8.3-7.2 14.9-7.2Zm43.356 50.2c-1.666 1.667-3.666 2.5-6 2.5-2.333 0-4.333-.833-6-2.5-1.666-1.667-2.5-3.667-2.5-6s.834-4.333 2.5-6c1.667-1.667 3.667-2.5 6-2.5 2.334 0 4.334.833 6 2.5 1.667 1.667 2.5 3.667 2.5 6s-.833 4.333-2.5 6Z" fill="#fff"/><path d="M75 0h.5v-.5H75V0Zm0 70v.5h.5V70H75Zm-13.7 0h-.5v.5h.5V70Zm0-45.4h.5v-1.79l-.928 1.53.428.26ZM41.6 57.1v.5h.282l.146-.24-.428-.26Zm-1.6 0-.427.26.146.24H40v-.5ZM20.3 24.7l.427-.26-.927-1.525V24.7h.5Zm0 45.3v.5h.5V70h-.5ZM6.5 70H6v.5h.5V70Zm0-70v-.5H6V0h.5Zm14.2 0 .427-.26-.146-.24H20.7V0Zm20.1 33.1-.427.26.428.705.427-.706-.428-.259ZM60.8 0v-.5h-.282l-.146.241L60.8 0Zm13.7 0v70h1V0h-1Zm.5 69.5H61.3v1H75v-1Zm-13.2.5V24.6h-1V70h1Zm-.928-45.66-19.7 32.5.856.52 19.7-32.5-.856-.52ZM41.6 56.6H40v1h1.6v-1Zm-1.173.24-19.7-32.4-.854.52 19.7 32.4.854-.52ZM19.8 24.7V70h1V24.7h-1Zm.5 44.8H6.5v1h13.8v-1ZM7 70V0H6v70h1ZM6.5.5h14.2v-1H6.5v1ZM20.273.26l20.1 33.1.854-.52-20.1-33.1-.854.52Zm20.955 33.099 20-33.1-.856-.518-20 33.1.856.518ZM60.8.5H75v-1H60.8v1Zm37.543 49.8v-.5h-.657l.175.633.482-.133Zm25.3 4.4.25-.433-.382-.22-.266.35.398.303Zm10.4 6 .411.284.309-.446-.47-.271-.25.433Zm-41.7 3.2-.354.354.354-.354Zm-.1-37.7.356.351.002-.002-.358-.349Zm37.1 0-.365.341.002.003.363-.344Zm6.7 24.1v.5h.419l.073-.412-.492-.088Zm-37.9-10-.487-.112-.14.612h.627v-.5Zm25.5 0v.5h.619l-.13-.605-.489.105Zm-4.6-7.6-.296.403.005.004.291-.407Zm-16.4.2.304.397.007-.005-.311-.392Zm-4.782 17.533c.894 3.23 2.565 5.69 5.03 7.333 2.456 1.638 5.654 2.434 9.552 2.434v-1c-3.769 0-6.754-.77-8.998-2.266-2.235-1.49-3.78-3.731-4.62-6.767l-.964.266Zm14.582 9.767c5.058 0 8.953-1.717 11.598-5.198l-.796-.605c-2.421 3.186-5.994 4.803-10.802 4.803v1Zm10.95-5.067 10.4 6 .5-.866-10.4-6-.5.866Zm10.239 5.283c-4.829 6.982-11.933 10.484-21.389 10.484v1c9.744 0 17.173-3.631 22.211-10.916l-.822-.568ZM112.243 70.9c-8.158 0-14.656-2.463-19.546-7.354l-.708.708c5.11 5.11 11.879 7.646 20.254 7.646v-1Zm-19.546-7.354c-4.9-4.898-7.354-11.068-7.354-18.546h-1c0 7.722 2.545 14.152 7.646 19.254l.707-.708ZM85.343 45c0-7.412 2.422-13.55 7.256-18.449l-.712-.702c-5.033 5.1-7.544 11.497-7.544 19.151h1Zm7.258-18.451c4.83-4.96 11.03-7.449 18.642-7.449v-1c-7.854 0-14.322 2.578-19.358 7.751l.716.698Zm18.642-7.449c7.204 0 13.102 2.482 17.735 7.441l.73-.682c-4.834-5.175-11.002-7.759-18.465-7.759v1Zm17.737 7.444c4.705 4.967 7.063 11.107 7.063 18.456h1c0-7.585-2.443-13.977-7.337-19.144l-.726.688ZM136.043 45c0 1.633-.163 3.37-.492 5.212l.984.176c.338-1.892.508-3.688.508-5.388h-1Zm0 4.8h-37.7v1h37.7v-1Zm-37.9-9h25.5v-1h-25.5v1Zm25.989-.605c-.754-3.495-2.343-6.148-4.798-7.902l-.582.814c2.212 1.58 3.689 3.993 4.402 7.298l.978-.21Zm-4.793-7.898c-2.356-1.732-5.061-2.597-8.096-2.597v1c2.832 0 5.327.802 7.504 2.403l.592-.806Zm-8.096-2.597c-3.556 0-6.539.925-8.911 2.808l.622.784c2.162-1.717 4.912-2.592 8.289-2.592v-1Zm-8.904 2.803c-2.373 1.815-3.928 4.39-4.683 7.685l.974.224c.712-3.105 2.156-5.463 4.317-7.115l-.608-.794ZM156.058 50.3v-.5h-.657l.175.633.482-.133Zm25.3 4.4.25-.433-.382-.22-.266.35.398.303Zm10.4 6 .411.284.309-.446-.47-.271-.25.433Zm-41.7 3.2-.354.354.354-.354Zm-.1-37.7.356.351.002-.002-.358-.349Zm37.1 0-.366.341.003.003.363-.344Zm6.7 24.1v.5h.418l.074-.412-.492-.088Zm-37.9-10-.488-.112-.14.612h.628v-.5Zm25.5 0v.5h.619l-.13-.605-.489.105Zm-4.6-7.6-.296.403.005.004.291-.407Zm-16.4.2.304.397.007-.005-.311-.392Zm-4.782 17.533c.893 3.23 2.565 5.69 5.029 7.333 2.457 1.638 5.655 2.434 9.553 2.434v-1c-3.769 0-6.755-.77-8.998-2.266-2.235-1.49-3.78-3.731-4.62-6.767l-.964.266Zm14.582 9.767c5.058 0 8.952-1.717 11.598-5.198l-.796-.605c-2.422 3.186-5.994 4.803-10.802 4.803v1Zm10.95-5.067 10.4 6 .5-.866-10.4-6-.5.866Zm10.239 5.283c-4.829 6.982-11.933 10.484-21.389 10.484v1c9.743 0 17.173-3.631 22.211-10.916l-.822-.568ZM169.958 70.9c-8.158 0-14.656-2.463-19.547-7.354l-.707.708c5.11 5.11 11.879 7.646 20.254 7.646v-1Zm-19.547-7.354c-4.898-4.898-7.353-11.068-7.353-18.546h-1c0 7.722 2.545 14.152 7.646 19.254l.707-.708ZM143.058 45c0-7.412 2.422-13.55 7.256-18.449l-.712-.702c-5.033 5.1-7.544 11.497-7.544 19.151h1Zm7.258-18.451c4.83-4.96 11.029-7.449 18.642-7.449v-1c-7.854 0-14.322 2.578-19.358 7.751l.716.698Zm18.642-7.449c7.204 0 13.102 2.482 17.734 7.441l.731-.682c-4.834-5.175-11.002-7.759-18.465-7.759v1Zm17.737 7.444C191.4 31.51 193.758 37.65 193.758 45h1c0-7.585-2.443-13.977-7.337-19.144l-.726.688ZM193.758 45c0 1.633-.164 3.37-.492 5.212l.984.176c.338-1.892.508-3.688.508-5.388h-1Zm0 4.8h-37.7v1h37.7v-1Zm-37.9-9h25.5v-1h-25.5v1Zm25.989-.605c-.754-3.495-2.343-6.148-4.799-7.902l-.581.814c2.212 1.58 3.689 3.993 4.402 7.298l.978-.21Zm-4.793-7.898c-2.356-1.732-5.061-2.597-8.096-2.597v1c2.831 0 5.327.802 7.504 2.403l.592-.806Zm-8.096-2.597c-3.557 0-6.539.925-8.911 2.808l.622.784c2.161-1.717 4.912-2.592 8.289-2.592v-1Zm-8.904 2.803c-2.373 1.815-3.928 4.39-4.684 7.685l.975.224c.712-3.105 2.156-5.463 4.317-7.115l-.608-.794Zm70.344-.103v.5h.5v-.5h-.5Zm-11.3 0v-.5h-.5v.5h.5Zm1.3 24.6-.339.367.339-.367Zm3.8 1.4-.039.498.01.001h.009l.02-.499Zm6.2-.1h.5v-.528l-.527.029.027.499Zm0 11.7.056.497.444-.05V70h-.5Zm-18.8-2.5-.297.402.003.002.294-.404Zm-5.4-35.1h.5v-.5h-.5v.5Zm-8.7 0h-.5v.5h.5v-.5Zm0-12.4v-.5h-.5v.5h.5Zm8.7 0v.5h.5V20h-.5Zm0-10.1-.144-.479-.356.108V9.9h.5Zm12.9-3.9h.5v-.674l-.644.195.144.479Zm0 14h-.5v.5h.5V20Zm11.3 0h.5v-.5h-.5v.5Zm0 11.9h-11.3v1h11.3v-1Zm-11.8.5v20.8h1V32.4h-1Zm0 20.8c0 1.807.452 3.236 1.461 4.167l.679-.734c-.724-.669-1.14-1.773-1.14-3.433h-1Zm1.461 4.167c.977.902 2.367 1.393 4.1 1.531l.079-.996c-1.6-.129-2.744-.571-3.5-1.27l-.679.735Zm4.119 1.533c1.688.067 3.772.033 6.247-.1l-.054-1c-2.457.134-4.507.166-6.153.1l-.04 1Zm5.72-.6V70h1V58.3h-1Zm.444 11.203c-8.846.998-14.945.141-18.449-2.407l-.589.808c3.829 2.785 10.264 3.595 19.15 2.593l-.112-.994Zm-18.446-2.405c-3.416-2.53-5.198-7.103-5.198-13.898h-1c0 6.938 1.819 11.899 5.603 14.702l.595-.804ZM206.698 53.2V32.4h-1v20.8h1Zm-.5-21.3h-8.7v1h8.7v-1Zm-8.2.5V20h-1v12.4h1Zm-.5-11.9h8.7v-1h-8.7v1Zm9.2-.5V9.9h-1V20h1Zm-.355-9.621 12.9-3.9-.289-.958-12.9 3.9.289.958ZM218.598 6v14h1V6h-1Zm.5 14.5h11.3v-1h-11.3v1Zm10.8-.5v12.4h1V20h-1Zm63.977 12.4v.5h.5v-.5h-.5Zm-11.3 0v-.5h-.5v.5h.5Zm1.3 24.6-.339.367.339-.367Zm3.8 1.4-.04.498.01.001h.01l.02-.499Zm6.2-.1h.5v-.528l-.527.029.027.499Zm0 11.7.056.497.444-.05V70h-.5Zm-18.8-2.5-.298.402.004.002.294-.404Zm-5.4-35.1h.5v-.5h-.5v.5Zm-8.7 0h-.5v.5h.5v-.5Zm0-12.4v-.5h-.5v.5h.5Zm8.7 0v.5h.5V20h-.5Zm0-10.1-.145-.479-.355.108V9.9h.5Zm12.9-3.9h.5v-.674l-.645.195.145.479Zm0 14h-.5v.5h.5V20Zm11.3 0h.5v-.5h-.5v.5Zm0 11.9h-11.3v1h11.3v-1Zm-11.8.5v20.8h1V32.4h-1Zm0 20.8c0 1.807.451 3.236 1.461 4.167l.678-.734c-.724-.669-1.139-1.773-1.139-3.433h-1Zm1.461 4.167c.977.902 2.366 1.393 4.099 1.531l.08-.996c-1.601-.129-2.745-.571-3.501-1.27l-.678.735Zm4.119 1.533c1.688.067 3.771.033 6.247-.1l-.054-1c-2.458.134-4.507.166-6.153.1l-.04 1Zm5.72-.6V70h1V58.3h-1Zm.444 11.203c-8.846.998-14.945.141-18.45-2.407l-.588.808c3.829 2.785 10.263 3.595 19.15 2.593l-.112-.994Zm-18.446-2.405c-3.417-2.53-5.198-7.103-5.198-13.898h-1c0 6.938 1.818 11.899 5.602 14.702l.596-.804ZM270.175 53.2V32.4h-1v20.8h1Zm-.5-21.3h-8.7v1h8.7v-1Zm-8.2.5V20h-1v12.4h1Zm-.5-11.9h8.7v-1h-8.7v1Zm9.2-.5V9.9h-1V20h1Zm-.355-9.621 12.9-3.9-.29-.958-12.9 3.9.29.958ZM282.075 6v14h1V6h-1Zm.5 14.5h11.3v-1h-11.3v1Zm10.8-.5v12.4h1V20h-1Zm50.895 4.1-.36.347.004.003.356-.35Zm5.4 45.9v.5h.5V70h-.5Zm-12.9 0h-.5v.5h.5V70Zm-2.7-36.7-.353.354.006.006.347-.36Zm-15.2.4.36.348-.36-.348Zm-3 36.3v.5h.5V70h-.5Zm-12.9 0h-.5v.5h.5V70Zm0-70v-.5h-.5V0h.5Zm12.9 0h.5v-.5h-.5V0Zm0 25.6h-.5v1.642l.915-1.363-.415-.279Zm14.9-6.5c5.342 0 9.709 1.786 13.14 5.347l.72-.694c-3.635-3.772-8.268-5.653-13.86-5.653v1Zm13.144 5.35C347.4 28 349.17 32.93 349.17 39.3h1c0-6.562-1.829-11.767-5.543-15.55l-.713.7Zm5.256 14.85V70h1V39.3h-1Zm.5 30.2h-12.9v1h12.9v-1Zm-12.4.5V40.9h-1V70h1Zm0-29.1c0-3.422-.926-6.104-2.853-7.96l-.694.72c1.673 1.61 2.547 3.995 2.547 7.24h1Zm-2.846-7.954c-1.911-1.91-4.447-2.846-7.554-2.846v1c2.893 0 5.157.864 6.847 2.554l.707-.708ZM326.87 30.1c-3.445 0-6.25 1.073-8.359 3.252l.719.696c1.89-1.954 4.419-2.948 7.64-2.948v-1Zm-8.359 3.252c-2.123 2.194-3.141 5.442-3.141 9.648h1c0-4.06.983-7.013 2.86-8.952l-.719-.696ZM315.37 43v27h1V43h-1Zm.5 26.5h-12.9v1h12.9v-1Zm-12.4.5V0h-1v70h1Zm-.5-69.5h12.9v-1h-12.9v1Zm12.4-.5v25.6h1V0h-1Zm.915 25.879c3.021-4.498 7.812-6.779 14.485-6.779v-1c-6.926 0-12.068 2.386-15.315 7.221l.83.558Zm55.3 24.421v-.5h-.657l.175.633.482-.133Zm25.3 4.4.25-.433-.381-.22-.267.35.398.303Zm10.4 6 .411.284.309-.446-.47-.271-.25.433Zm-41.7 3.2-.353.354.353-.354Zm-.1-37.7.356.351.002-.002-.358-.349Zm37.1 0-.365.341.002.003.363-.344Zm6.7 24.1v.5h.419l.073-.412-.492-.088Zm-37.9-10-.487-.112-.14.612h.627v-.5Zm25.5 0v.5h.619l-.13-.605-.489.105Zm-4.6-7.6-.296.403.006.004.29-.407Zm-16.4.2.304.397.007-.005-.311-.392Zm-4.782 17.533c.894 3.23 2.565 5.69 5.03 7.333 2.457 1.638 5.654 2.434 9.552 2.434v-1c-3.769 0-6.754-.77-8.997-2.266-2.236-1.49-3.781-3.731-4.621-6.767l-.964.266Zm14.582 9.767c5.058 0 8.953-1.717 11.598-5.198l-.796-.605c-2.421 3.186-5.993 4.803-10.802 4.803v1Zm10.95-5.067 10.4 6 .5-.866-10.4-6-.5.866Zm10.239 5.283c-4.829 6.982-11.932 10.484-21.389 10.484v1c9.744 0 17.174-3.631 22.211-10.916l-.822-.568ZM385.485 70.9c-8.158 0-14.656-2.463-19.546-7.354l-.707.708c5.109 5.11 11.878 7.646 20.253 7.646v-1Zm-19.546-7.354c-4.899-4.898-7.354-11.068-7.354-18.546h-1c0 7.722 2.545 14.152 7.647 19.254l.707-.708ZM358.585 45c0-7.412 2.422-13.55 7.256-18.449l-.712-.702c-5.033 5.1-7.544 11.497-7.544 19.151h1Zm7.258-18.451c4.83-4.96 11.03-7.449 18.642-7.449v-1c-7.854 0-14.321 2.578-19.358 7.751l.716.698Zm18.642-7.449c7.204 0 13.102 2.482 17.735 7.441l.731-.682c-4.834-5.175-11.003-7.759-18.466-7.759v1Zm17.737 7.444c4.706 4.967 7.063 11.107 7.063 18.456h1c0-7.585-2.442-13.977-7.337-19.144l-.726.688ZM409.285 45c0 1.633-.163 3.37-.492 5.212l.984.176c.338-1.892.508-3.688.508-5.388h-1Zm0 4.8h-37.7v1h37.7v-1Zm-37.9-9h25.5v-1h-25.5v1Zm25.989-.605c-.754-3.495-2.343-6.148-4.798-7.902l-.581.814c2.211 1.58 3.688 3.993 4.401 7.298l.978-.21Zm-4.793-7.898c-2.356-1.732-5.061-2.597-8.096-2.597v1c2.832 0 5.327.802 7.504 2.403l.592-.806Zm-8.096-2.597c-3.556 0-6.539.925-8.911 2.808l.622.784c2.162-1.717 4.912-2.592 8.289-2.592v-1Zm-8.904 2.803c-2.373 1.815-3.928 4.39-4.683 7.685l.975.224c.711-3.105 2.156-5.463 4.316-7.115l-.608-.794Zm96.81-.103v.5h.5v-.5h-.5Zm-11.3 0v-.5h-.5v.5h.5Zm1.3 24.6-.34.367.34-.367Zm3.8 1.4-.04.498.01.001h.01l.02-.499Zm6.2-.1h.5v-.528l-.527.029.027.499Zm0 11.7.056.497.444-.05V70h-.5Zm-18.8-2.5-.298.402.004.002.294-.404Zm-5.4-35.1h.5v-.5h-.5v.5Zm-8.7 0h-.5v.5h.5v-.5Zm0-12.4v-.5h-.5v.5h.5Zm8.7 0v.5h.5V20h-.5Zm0-10.1-.145-.479-.355.108V9.9h.5Zm12.9-3.9h.5v-.674l-.645.195.145.479Zm0 14h-.5v.5h.5V20Zm11.3 0h.5v-.5h-.5v.5Zm0 11.9h-11.3v1h11.3v-1Zm-11.8.5v20.8h1V32.4h-1Zm0 20.8c0 1.807.451 3.236 1.46 4.167l.679-.734c-.724-.669-1.139-1.773-1.139-3.433h-1Zm1.46 4.167c.978.902 2.367 1.393 4.1 1.531l.079-.996c-1.6-.129-2.744-.571-3.5-1.27l-.679.735Zm4.12 1.533c1.687.067 3.771.033 6.247-.1l-.054-1c-2.458.134-4.508.166-6.153.1l-.04 1Zm5.72-.6V70h1V58.3h-1Zm.444 11.203c-8.847.998-14.946.141-18.45-2.407l-.588.808c3.828 2.785 10.263 3.595 19.15 2.593l-.112-.994Zm-18.447-2.405c-3.416-2.53-5.197-7.103-5.197-13.898h-1c0 6.938 1.818 11.899 5.602 14.702l.595-.804ZM448.691 53.2V32.4h-1v20.8h1Zm-.5-21.3h-8.7v1h8.7v-1Zm-8.2.5V20h-1v12.4h1Zm-.5-11.9h8.7v-1h-8.7v1Zm9.2-.5V9.9h-1V20h1Zm-.356-9.621 12.9-3.9-.289-.958-12.9 3.9.289.958ZM460.591 6v14h1V6h-1Zm.5 14.5h11.3v-1h-11.3v1Zm10.8-.5v12.4h1V20h-1Zm18.932 30.3v-.5h-.657l.176.633.481-.133Zm25.3 4.4.25-.433-.381-.22-.267.35.398.303Zm10.4 6 .412.284.308-.446-.47-.271-.25.433Zm-41.7 3.2-.353.354.353-.354Zm-.1-37.7.356.351.003-.002-.359-.349Zm37.1 0-.365.341.002.003.363-.344Zm6.7 24.1v.5h.419l.074-.412-.493-.088Zm-37.9-10-.487-.112-.14.612h.627v-.5Zm25.5 0v.5h.62l-.131-.605-.489.105Zm-4.6-7.6-.296.403.006.004.29-.407Zm-16.4.2.304.397.007-.005-.311-.392Zm-4.781 17.533c.893 3.23 2.564 5.69 5.029 7.333 2.457 1.638 5.655 2.434 9.552 2.434v-1c-3.769 0-6.754-.77-8.997-2.266-2.235-1.49-3.781-3.731-4.621-6.767l-.963.266Zm14.581 9.767c5.059 0 8.953-1.717 11.599-5.198l-.797-.605c-2.421 3.186-5.993 4.803-10.802 4.803v1Zm10.951-5.067 10.4 6 .499-.866-10.4-6-.499.866Zm10.238 5.283C521.283 67.398 514.18 70.9 504.723 70.9v1c9.744 0 17.174-3.631 22.212-10.916l-.823-.568ZM504.723 70.9c-8.158 0-14.656-2.463-19.546-7.354l-.707.708c5.109 5.11 11.878 7.646 20.253 7.646v-1Zm-19.546-7.354c-4.899-4.898-7.354-11.068-7.354-18.546h-1c0 7.722 2.546 14.152 7.647 19.254l.707-.708ZM477.823 45c0-7.412 2.422-13.55 7.256-18.449l-.711-.702c-5.033 5.1-7.545 11.497-7.545 19.151h1Zm7.259-18.451c4.83-4.96 11.029-7.449 18.641-7.449v-1c-7.854 0-14.321 2.578-19.358 7.751l.717.698Zm18.641-7.449c7.204 0 13.102 2.482 17.735 7.441l.731-.682c-4.834-5.175-11.003-7.759-18.466-7.759v1Zm17.737 7.444c4.706 4.967 7.063 11.107 7.063 18.456h1c0-7.585-2.442-13.977-7.337-19.144l-.726.688ZM528.523 45c0 1.633-.163 3.37-.492 5.212l.985.176c.337-1.892.507-3.688.507-5.388h-1Zm0 4.8h-37.7v1h37.7v-1Zm-37.9-9h25.5v-1h-25.5v1Zm25.989-.605c-.753-3.495-2.343-6.148-4.798-7.902l-.581.814c2.211 1.58 3.689 3.993 4.402 7.298l.977-.21Zm-4.792-7.898c-2.357-1.732-5.062-2.597-8.097-2.597v1c2.832 0 5.327.802 7.504 2.403l.593-.806Zm-8.097-2.597c-3.556 0-6.539.925-8.911 2.808l.622.784c2.162-1.717 4.913-2.592 8.289-2.592v-1Zm-8.903 2.803c-2.373 1.815-3.929 4.39-4.684 7.685l.975.224c.711-3.105 2.156-5.463 4.316-7.115l-.607-.794ZM575.638 20v-.5h-.5v.5h.5Zm12.9 0h.5v-.5h-.5v.5Zm0 50v.5h.5V70h-.5Zm-12.9 0h-.5v.5h.5V70Zm0-5.9h.5v-1.433l-.891 1.122.391.311Zm-33.5-.3-.367.339.004.005.363-.344Zm0-37.5-.365-.341.365.341Zm33.5-.4-.391.311.891 1.122V25.9h-.5Zm-23.8 29.3-.358.35.005.004.353-.354Zm19.8 0 .354.354-.354-.354Zm0-20.3-.358.35.009.008.349-.358Zm-19.8 0 .354.354.004-.005-.358-.349Zm23.8-14.4h12.9v-1h-12.9v1Zm12.4-.5v50h1V20h-1Zm.5 49.5h-12.9v1h12.9v-1Zm-12.4.5v-5.9h-1V70h1Zm-.891-6.211c-3.759 4.731-9.039 7.111-15.909 7.111v1c7.131 0 12.717-2.487 16.692-7.489l-.783-.622ZM559.338 70.9c-6.522 0-12.126-2.472-16.837-7.444l-.726.688c4.89 5.161 10.752 7.756 17.563 7.756v-1Zm-16.832-7.439c-4.643-5.035-6.968-11.178-6.968-18.461h-1c0 7.517 2.409 13.907 7.233 19.139l.735-.678ZM535.538 45c0-7.283 2.325-13.391 6.966-18.359l-.731-.682c-4.826 5.166-7.235 11.524-7.235 19.041h1Zm6.965-18.358c4.712-5.039 10.315-7.542 16.835-7.542v-1c-6.813 0-12.676 2.63-17.565 7.858l.73.684Zm16.835-7.542c6.87 0 12.15 2.38 15.909 7.111l.783-.622c-3.975-5.002-9.561-7.489-16.692-7.489v1Zm16.8 6.8V20h-1v5.9h1Zm-24.653 29.654c2.702 2.702 6.134 4.046 10.253 4.046v-1c-3.88 0-7.049-1.256-9.546-3.754l-.707.708Zm10.253 4.046c4.12 0 7.551-1.344 10.254-4.046l-.707-.708c-2.498 2.498-5.666 3.754-9.547 3.754v1Zm10.254-4.046c2.77-2.77 4.146-6.302 4.146-10.554h-1c0 4.015-1.29 7.283-3.853 9.846l.707.708ZM576.138 45c0-4.252-1.376-7.753-4.151-10.458l-.698.716c2.559 2.495 3.849 5.727 3.849 9.742h1Zm-4.142-10.45c-2.701-2.77-6.134-4.15-10.258-4.15v1c3.877 0 7.044 1.287 9.542 3.849l.716-.698Zm-10.258-4.15c-4.123 0-7.556 1.38-10.258 4.15l.716.699c2.499-2.562 5.666-3.849 9.542-3.849v-1Zm-10.253 4.146c-2.706 2.706-4.047 6.206-4.047 10.454h1c0-4.019 1.26-7.252 3.754-9.746l-.707-.708ZM547.438 45c0 4.248 1.341 7.778 4.042 10.549l.716-.698c-2.498-2.563-3.758-5.832-3.758-9.851h-1Zm121.798-20.8-.37.337.004.003.366-.34Zm5.2 45.8v.5h.5V70h-.5Zm-12.9 0h-.5v.5h.5V70Zm-15.3-36.5-.379-.327-.006.008.385.319Zm-2.4 36.5v.5h.5V70h-.5Zm-12.9 0h-.5v.5h.5V70Zm-2.2-36.9-.375.33.375-.33Zm-13.1.4-.372-.334-.007.008.379.326Zm-2.5 36.5v.5h.5V70h-.5Zm-12.9 0h-.5v.5h.5V70Zm0-50v-.5h-.5v.5h.5Zm12.9 0h.5v-.5h-.5v.5Zm0 5.3h-.5v1.641l.915-1.362-.415-.279Zm27.5.5-.427.26.4.655.438-.63-.411-.285Zm14.9-6.7c5.614 0 10.038 1.822 13.33 5.437l.74-.674c-3.508-3.852-8.217-5.763-14.07-5.763v1Zm13.334 5.44c3.362 3.62 5.066 8.49 5.066 14.66h1c0-6.362-1.762-11.494-5.334-15.34l-.732.68Zm5.066 14.66V70h1V39.2h-1Zm.5 30.3h-12.9v1h12.9v-1Zm-12.4.5V40.1h-1V70h1Zm0-29.9c0-3.078-.753-5.544-2.325-7.33l-.75.66c1.361 1.548 2.075 3.748 2.075 6.67h1Zm-2.325-7.33c-1.58-1.797-3.796-2.67-6.575-2.67v1c2.554 0 4.472.793 5.825 2.33l.75-.66Zm-6.575-2.67c-3.055 0-5.502 1.013-7.279 3.073l.758.654c1.557-1.807 3.709-2.727 6.521-2.727v-1Zm-7.285 3.081c-1.702 2.056-2.515 4.988-2.515 8.719h1c0-3.602.787-6.27 2.285-8.081l-.77-.638Zm-2.515 8.719V70h1V41.9h-1Zm.5 27.6h-12.9v1h12.9v-1Zm-12.4.5V40.1h-1V70h1Zm0-29.9c0-3.078-.753-5.544-2.325-7.33l-.75.66c1.361 1.548 2.075 3.748 2.075 6.67h1Zm-2.325-7.33c-1.58-1.797-3.796-2.67-6.575-2.67v1c2.555 0 4.472.793 5.825 2.33l.75-.66Zm-6.575-2.67c-2.992 0-5.434 1.015-7.272 3.066l.744.668c1.628-1.816 3.787-2.734 6.528-2.734v-1Zm-7.279 3.073c-1.773 2.057-2.621 4.992-2.621 8.727h1c0-3.598.818-6.264 2.379-8.073l-.758-.654Zm-2.621 8.727V70h1V41.9h-1Zm.5 27.6h-12.9v1h12.9v-1Zm-12.4.5V20h-1v50h1Zm-.5-49.5h12.9v-1h-12.9v1Zm12.4-.5v5.3h1V20h-1Zm.915 5.579c2.891-4.304 7.353-6.479 13.485-6.479v-1c-6.402 0-11.206 2.292-14.315 6.921l.83.558Zm13.485-6.479c5.978 0 10.34 2.325 13.173 6.96l.854-.52c-3.034-4.965-7.738-7.44-14.027-7.44v1Zm14.011 6.985c3.226-4.646 8.028-6.985 14.489-6.985v-1c-6.739 0-11.871 2.461-15.311 7.415l.822.57ZM698.892 68.8l-.353-.354.353.354Zm-12 0-.353.354.353-.354Zm0-12 .354.354-.354-.354Zm12 0-.353.354.353-.354Zm-.353 11.646c-1.574 1.574-3.448 2.354-5.647 2.354v1c2.468 0 4.594-.887 6.354-2.646l-.707-.708Zm-5.647 2.354c-2.199 0-4.072-.78-5.646-2.354l-.707.708c1.759 1.759 3.886 2.646 6.353 2.646v-1Zm-5.646-2.354c-1.574-1.573-2.354-3.447-2.354-5.646h-1c0 2.467.887 4.594 2.647 6.354l.707-.708Zm-2.354-5.646c0-2.2.78-4.072 2.354-5.646l-.707-.708c-1.76 1.76-2.647 3.887-2.647 6.354h1Zm2.354-5.646c1.574-1.574 3.447-2.354 5.646-2.354v-1c-2.467 0-4.594.887-6.353 2.646l.707.708Zm5.646-2.354c2.199 0 4.073.78 5.647 2.354l.707-.708c-1.76-1.759-3.886-2.646-6.354-2.646v1Zm5.647 2.354c1.574 1.573 2.353 3.447 2.353 5.646h1c0-2.467-.887-4.594-2.646-6.354l-.707.708Zm2.353 5.646c0 2.2-.779 4.073-2.353 5.646l.707.708c1.759-1.76 2.646-3.887 2.646-6.354h-1Z" fill="#1B1B1B"/><path fill-rule="evenodd" clip-rule="evenodd" d="M194.258 44.94c-.013-7.44-2.413-13.687-7.2-18.74-4.734-5.067-10.767-7.6-18.1-7.6-6.373 0-11.795 1.72-16.266 5.16l13.165 6.708a17.148 17.148 0 0 1 3.101-.268c2.933 0 5.533.833 7.8 2.5 1.781 1.272 3.096 3.05 3.945 5.333l13.555 6.907Zm36.14 18.414-24.2-12.33V32.4h-8.7V20h8.7V9.9l12.9-3.9v14h11.3v12.4h-11.3v20.8c0 1.733.434 3 1.3 3.8.867.8 2.134 1.267 3.8 1.4 1.667.067 3.734.033 6.2-.1v5.054Zm312.229.95 13.532 6.895c-5.113-.662-9.624-2.96-13.532-6.895Zm-62.472-31.83c-1.888 3.69-2.832 7.866-2.832 12.526 0 7.6 2.5 13.9 7.5 18.9 5 5 11.634 7.5 19.9 7.5 9.6 0 16.867-3.567 21.8-10.7l-10.4-6c-2.533 3.333-6.266 5-11.2 5-7.666 0-12.366-3.133-14.1-9.4h24.32l-19.627-10h-4.893c.175-.761.393-1.481.654-2.16l-11.122-5.667Zm-31.964-16.288 24.2 12.33V32.4h-11.3v20.8c0 1.733.433 3 1.3 3.8.866.8 2.133 1.267 3.8 1.4 1.666.067 3.733.033 6.2-.1V70c-8.867 1-15.134.167-18.8-2.5-3.6-2.667-5.4-7.433-5.4-14.3V32.4h-8.7V20h8.7v-3.814ZM282.575 32.4h11.3V20h-11.3V6l-12.9 3.9V20h-8.7v12.4h8.7v20.8c0 6.867 1.8 11.633 5.4 14.3 3.667 2.667 9.933 3.5 18.8 2.5V58.3c-2.467.133-4.533.167-6.2.1-1.667-.133-2.933-.6-3.8-1.4-.867-.8-1.3-2.067-1.3-3.8V32.4Zm61.695-8.3c-3.533-3.667-8.033-5.5-13.5-5.5-6.8 0-11.766 2.333-14.9 7V0h-12.9v70h12.9V43c0-4.133 1-7.233 3-9.3 2-2.067 4.667-3.1 8-3.1 3 0 5.4.9 7.2 2.7 1.8 1.733 2.7 4.267 2.7 7.6V70h12.9V39.3c0-6.467-1.8-11.533-5.4-15.2Zm41.415 35.6c-7.667 0-12.367-3.133-14.1-9.4h37.7c.333-1.867.5-3.633.5-5.3 0-7.467-2.4-13.733-7.2-18.8-4.733-5.067-10.767-7.6-18.1-7.6-7.733 0-14.067 2.533-19 7.6-4.933 5-7.4 11.267-7.4 18.8 0 7.6 2.5 13.9 7.5 18.9 5 5 11.633 7.5 19.9 7.5 9.6 0 16.867-3.567 21.8-10.7l-10.4-6c-2.533 3.333-6.267 5-11.2 5Zm11.2-19.4h-25.5c.733-3.2 2.233-5.667 4.5-7.4 2.267-1.8 5.133-2.7 8.6-2.7 2.933 0 5.533.833 7.8 2.5 2.333 1.667 3.867 4.2 4.6 7.6Z" fill="#1B1B1B"/></svg>